<mxfile host="app.diagrams.net" modified="2022-10-17T22:55:49.583Z" agent="5.0 (Macintosh; Intel Mac OS X 10_15_7) AppleWebKit/537.36 (KHTML, like Gecko) Chrome/106.0.0.0 Safari/537.36" etag="Io5E-znvjxBMmT1ecIL6" version="20.4.1" type="github">
  <diagram id="bF-zwXs4uUqL0e1Ni2zN" name="Page-1">
    <mxGraphModel dx="1341" dy="535" grid="1" gridSize="10" guides="1" tooltips="1" connect="1" arrows="1" fold="1" page="1" pageScale="1" pageWidth="827" pageHeight="1169" math="0" shadow="0">
      <root>
        <mxCell id="0" />
        <mxCell id="1" parent="0" />
        <mxCell id="IGJz30hrRIssMgwzsNPl-1" value="" style="rounded=0;whiteSpace=wrap;html=1;" vertex="1" parent="1">
          <mxGeometry x="10" y="120" width="250" height="170" as="geometry" />
        </mxCell>
        <mxCell id="IGJz30hrRIssMgwzsNPl-2" value="" style="rounded=0;whiteSpace=wrap;html=1;" vertex="1" parent="1">
          <mxGeometry x="280" y="120" width="250" height="170" as="geometry" />
        </mxCell>
        <mxCell id="IGJz30hrRIssMgwzsNPl-3" value="" style="rounded=0;whiteSpace=wrap;html=1;" vertex="1" parent="1">
          <mxGeometry x="550" y="120" width="250" height="170" as="geometry" />
        </mxCell>
        <mxCell id="IGJz30hrRIssMgwzsNPl-4" value="Top Level Components (Routing endpoints)" style="text;html=1;strokeColor=#666666;fillColor=#f5f5f5;align=center;verticalAlign=middle;whiteSpace=wrap;rounded=0;fontColor=#333333;" vertex="1" parent="1">
          <mxGeometry x="10" y="60" width="820" height="30" as="geometry" />
        </mxCell>
        <mxCell id="IGJz30hrRIssMgwzsNPl-5" value="Child" style="rounded=0;whiteSpace=wrap;html=1;" vertex="1" parent="1">
          <mxGeometry x="20" y="170" width="230" height="110" as="geometry" />
        </mxCell>
        <mxCell id="IGJz30hrRIssMgwzsNPl-6" value="" style="rounded=0;whiteSpace=wrap;html=1;" vertex="1" parent="1">
          <mxGeometry x="290" y="170" width="230" height="110" as="geometry" />
        </mxCell>
        <mxCell id="IGJz30hrRIssMgwzsNPl-7" value="" style="rounded=0;whiteSpace=wrap;html=1;" vertex="1" parent="1">
          <mxGeometry x="560" y="170" width="230" height="110" as="geometry" />
        </mxCell>
      </root>
    </mxGraphModel>
  </diagram>
</mxfile>
